<svg xmlns="http://www.w3.org/2000/svg" viewBox="0 0 64 64" fill="none">
  <defs>
    <linearGradient id="grad" x1="0%" y1="0%" x2="100%" y2="100%">
      <stop offset="0%" stop-color="#667eea" />
      <stop offset="100%" stop-color="#2ecc71" />
    </linearGradient>
  </defs>
  <rect width="64" height="64" rx="12" fill="url(#grad)" />
  <path d="M32 14c-6 0-12 4.5-12 11v4h-3a3 3 0 0 0-3 3v14c0 1.7 1.3 3 3 3h28a3 3 0 0 0 3-3V32a3 3 0 0 0-3-3h-3v-4c0-6.5-6-11-12-11Zm0 6c3.3 0 6 2.1 6 5v4H26v-4c0-2.9 2.7-5 6-5Zm-1 16h2v4h4v2h-4v4h-2v-4h-4v-2h4v-4Z" fill="#ffffff" />
</svg>
